<svg width="237" height="50" viewBox="0 0 237 50" fill="none" xmlns="http://www.w3.org/2000/svg">
<g id="Rectangle 11">
<path d="M0 25C0 11.1929 11.1929 0 25 0H212C225.807 0 237 11.1929 237 25C237 38.8071 225.807 50 212 50H25C11.1929 50 0 38.8071 0 25Z" fill="url(#paint0_linear_8_8)"/>
<path d="M0 25C0 11.1929 11.1929 0 25 0H212C225.807 0 237 11.1929 237 25C237 38.8071 225.807 50 212 50H25C11.1929 50 0 38.8071 0 25Z" stroke="#716A6A"/>
</g>
<defs>
<linearGradient id="paint0_linear_8_8" x1="118.5" y1="0" x2="118.5" y2="50" gradientUnits="userSpaceOnUse">
<stop offset="0.276042" stop-color="#1E90E2"/>
<stop offset="0.734375" stop-color="#1E90E2" stop-opacity="0.484375"/>
</linearGradient>
</defs>
</svg>
